<svg xmlns="http://www.w3.org/2000/svg" x="0px" y="0px" width="100" height="100" viewBox="0 0 100 100">
<ellipse cx="49.979" cy="59.5" fill="#f9e7e5" rx="29.521" ry="24.5"></ellipse><path fill="#fff" d="M79.5,59.5c0,4.61-1.53,8.92-4.2,12.6c-0.7,0.34-3.18,1.4-6.8,1.4c-10,0-15-8.5-15-15 c0-6.319,4.043-13.731,8.97-15.075c8.961-2.444,13.21,4.025,13.21,4.025C78.12,51.01,79.5,55.12,79.5,59.5z"></path><path fill="#fff" d="M20.458,59.5c0,4.61,1.53,8.92,4.2,12.6c0.7,0.34,3.18,1.4,6.8,1.4c10,0,15-8.5,15-15 c0-6.319-4.043-13.731-8.97-15.075c-8.961-2.444-13.21,4.025-13.21,4.025C21.838,51.01,20.458,55.12,20.458,59.5z"></path><path fill="#f497b0" d="M76,59.218c0,5.139-3.144,13.106-12.733,13.822h-0.01c-6.505-2.459-9.757-9.079-9.757-14.386 c0-9.304,6.452-15.666,11.25-16.132c3.022-0.293,6.479,3.273,8.182,6.07C74.997,52.338,76,55.734,76,59.218z"></path><path fill="#f497b0" d="M24,59.218c0,5.139,3.144,13.106,12.733,13.822h0.01c6.505-2.459,9.757-9.079,9.757-14.386 c0-9.304-6.452-15.666-11.25-16.132c-3.022-0.293-6.479,3.273-8.182,6.07C25.003,52.338,24,55.734,24,59.218z"></path><path fill="#f5905f" d="M78.15,52.17C73.49,48.5,65.97,48,65.97,48c-1.97-3.19-5.47-4.5-5.47-4.5l1,4h-8 c0,0-0.55-3.94-3.52-7.13c-2.97,3.19-3.52,7.13-3.52,7.13h-8l1-4c0,0-3.5,1.31-5.47,4.5c0,0-7.52,0.5-12.18,4.17 C25.56,42.22,36.76,35,49.98,35C63.2,35,74.4,42.22,78.15,52.17z"></path><path fill="#1f212b" d="M46.5,58.5c0,3-1.07,6.43-3.2,9.25l-0.01,0.01c-1.49,1.29-3.36,1.78-5.25,1.78 c-7.45,0-10.54-5.94-10.54-10.04c0-2.35,0.45-6.63,3.6-11.09V48.4c1.71-0.32,2.89-0.4,2.89-0.4c1.97-3.19,5.47-4.5,5.47-4.5l-1,4 H43v0.18C45.5,51,46.5,54.8,46.5,58.5z"></path><path fill="#1f212b" d="M72.5,59.5c0,4.1-3.09,10.04-10.54,10.04c-1.89,0-3.76-0.49-5.25-1.78l-0.01-0.01 c-2.13-2.82-3.2-6.25-3.2-9.25c0-3.7,1-7.5,3.5-10.82V47.5h4.5l-1-4c0,0,3.5,1.31,5.47,4.5c0,0,1.19,0.08,2.93,0.41 C72.05,52.87,72.5,57.15,72.5,59.5z"></path><circle cx="59.5" cy="57.5" r="4" fill="#fff"></circle><circle cx="40.5" cy="57.5" r="4" fill="#fff"></circle><path fill="#e85654" d="M68.9,27.63c0,5.39-1.64,8.96-2.96,11.26c-3.19-1.71-6.8-2.92-10.68-3.49 c-1.71-0.27-3.48-0.4-5.28-0.4c-1.8,0-3.57,0.13-5.28,0.4c-3.88,0.57-7.49,1.78-10.68,3.49c-1.32-2.3-2.96-5.87-2.96-11.26 c0-6.71,3.88-16.63,8.9-16.63c5,0,8.02,9.32,8.02,18.66L48.11,30c0.58-0.22,1.21-0.34,1.87-0.34c0.66,0,1.29,0.12,1.87,0.34 l0.13-0.34C51.98,20.32,55,11,60,11C65.02,11,68.9,20.92,68.9,27.63z"></path><g><path fill="#1f212b" d="M49.979,85c-16.83,0-30.521-11.439-30.521-25.5S33.149,34,49.979,34 C66.809,34,80.5,45.439,80.5,59.5S66.809,85,49.979,85z M49.979,36c-15.727,0-28.521,10.542-28.521,23.5S34.253,83,49.979,83 S78.5,72.458,78.5,59.5S65.706,36,49.979,36z"></path><path fill="#1f212b" d="M59.5,62c-2.481,0-4.5-2.019-4.5-4.5s2.019-4.5,4.5-4.5s4.5,2.019,4.5,4.5S61.981,62,59.5,62z M59.5,54c-1.93,0-3.5,1.57-3.5,3.5s1.57,3.5,3.5,3.5s3.5-1.57,3.5-3.5S61.43,54,59.5,54z"></path><path fill="#1f212b" d="M68.5,74C57.926,74,53,64.751,53,58.5c0-4.148,1.246-7.993,3.603-11.12 c0.168-0.222,0.481-0.263,0.7-0.099c0.221,0.166,0.265,0.479,0.099,0.7C55.176,50.934,54,54.571,54,58.5 C54,64.521,58.499,73,68.5,73c4.107,0,6.731-1.423,6.758-1.438c0.239-0.133,0.546-0.046,0.679,0.195 c0.134,0.241,0.048,0.545-0.193,0.679C75.628,72.501,72.883,74,68.5,74z"></path><path fill="#1f212b" d="M40.5,62c-2.481,0-4.5-2.019-4.5-4.5s2.019-4.5,4.5-4.5s4.5,2.019,4.5,4.5S42.981,62,40.5,62z M40.5,54c-1.93,0-3.5,1.57-3.5,3.5s1.57,3.5,3.5,3.5s3.5-1.57,3.5-3.5S42.43,54,40.5,54z"></path><path fill="#1f212b" d="M31.5,74c-4.383,0-7.128-1.499-7.243-1.563c-0.241-0.134-0.327-0.438-0.193-0.679 c0.133-0.241,0.438-0.328,0.679-0.195C24.769,71.577,27.393,73,31.5,73C41.501,73,46,64.521,46,58.5 c0-3.929-1.176-7.566-3.401-10.519c-0.166-0.221-0.122-0.534,0.099-0.7c0.219-0.164,0.532-0.123,0.7,0.099 C45.754,50.507,47,54.352,47,58.5C47,64.751,42.074,74,31.5,74z"></path><path fill="#1f212b" d="M55.316,36c-0.553,0-1-0.447-1-1c0-2.392-1.945-4.337-4.337-4.337S45.642,32.608,45.642,35 c0,0.553-0.447,1-1,1s-1-0.447-1-1c0-3.494,2.843-6.337,6.338-6.337c3.494,0,6.337,2.843,6.337,6.337 C56.316,35.553,55.869,36,55.316,36z"></path><path fill="#1f212b" d="M65.939,39.888c-0.168,0-0.339-0.042-0.495-0.132c-0.479-0.274-0.646-0.885-0.372-1.364 c1.212-2.119,2.823-5.54,2.823-10.759C67.896,20.951,63.992,12,60,12c-3.871,0-7.021,7.924-7.021,17.663c0,0.553-0.447,1-1,1 s-1-0.447-1-1C50.979,20.131,54.141,10,60,10c5.74,0,9.896,10.532,9.896,17.633c0,5.695-1.762,9.435-3.087,11.751 C66.624,39.707,66.286,39.888,65.939,39.888z"></path><path fill="#1f212b" d="M34.019,39.888c-0.347,0-0.685-0.181-0.869-0.504c-1.325-2.316-3.087-6.056-3.087-11.751 c0-7.101,4.155-17.633,9.896-17.633c5.859,0,9.021,10.131,9.021,19.663c0,0.553-0.447,1-1,1s-1-0.447-1-1 C46.979,19.924,43.83,12,39.958,12c-3.992,0-7.896,8.951-7.896,15.633c0,5.219,1.611,8.64,2.823,10.759 c0.274,0.479,0.107,1.09-0.372,1.364C34.357,39.846,34.187,39.888,34.019,39.888z"></path><path fill="#1f212b" d="M78.158,52.681c-0.109,0-0.218-0.035-0.31-0.107c-4.479-3.539-11.836-4.069-11.909-4.074 c-0.161-0.011-0.308-0.099-0.392-0.236c-1.252-2.023-3.178-3.266-4.308-3.864l0.745,2.98c0.037,0.149,0.004,0.308-0.091,0.429 S61.654,48,61.5,48h-8c-0.249,0-0.46-0.184-0.495-0.43c-0.005-0.036-0.524-3.5-3.025-6.45c-2.503,2.95-3.021,6.414-3.026,6.45 C46.918,47.816,46.707,48,46.458,48h-8c-0.154,0-0.3-0.071-0.395-0.192s-0.128-0.279-0.091-0.429l0.745-2.98 c-1.13,0.599-3.056,1.841-4.308,3.864c-0.084,0.138-0.23,0.226-0.392,0.236c-0.073,0.005-7.43,0.535-11.909,4.074 c-0.218,0.171-0.532,0.134-0.702-0.083c-0.171-0.216-0.134-0.53,0.083-0.702c4.295-3.394,10.819-4.143,12.207-4.267 c2.057-3.142,5.439-4.436,5.586-4.49c0.172-0.064,0.37-0.028,0.508,0.096c0.139,0.124,0.197,0.314,0.152,0.494L39.099,47h6.942 c0.234-1.138,1.077-4.292,3.572-6.974c0.095-0.102,0.228-0.159,0.366-0.159l0,0c0.139,0,0.271,0.058,0.366,0.159 c2.494,2.682,3.337,5.836,3.571,6.974h6.942l-0.845-3.379c-0.045-0.18,0.014-0.37,0.152-0.494c0.137-0.124,0.333-0.16,0.508-0.096 c0.146,0.055,3.529,1.349,5.586,4.49c1.388,0.124,7.912,0.873,12.207,4.267c0.217,0.172,0.254,0.486,0.083,0.702 C78.452,52.615,78.306,52.681,78.158,52.681z"></path><path fill="#1f212b" d="M61.963,70.035c-2.255,0-4.136-0.641-5.591-1.905c-0.208-0.181-0.23-0.496-0.049-0.705 c0.181-0.208,0.497-0.231,0.705-0.049c1.268,1.101,2.928,1.659,4.935,1.659C69.275,69.035,72,63.187,72,59.5 c0-2.664-0.609-6.7-3.513-10.804c-0.159-0.226-0.106-0.538,0.119-0.697c0.225-0.16,0.537-0.107,0.697,0.119 C72.358,52.437,73,56.691,73,59.5C73,63.573,70.004,70.035,61.963,70.035z"></path><path fill="#1f212b" d="M38.037,70.035C29.996,70.035,27,63.573,27,59.5c0-2.809,0.642-7.063,3.696-11.382 c0.161-0.226,0.473-0.278,0.697-0.119c0.226,0.159,0.278,0.472,0.119,0.697C28.609,52.8,28,56.836,28,59.5 c0,3.687,2.725,9.535,10.037,9.535c2.007,0,3.667-0.559,4.935-1.659c0.208-0.183,0.524-0.159,0.705,0.049 c0.182,0.209,0.159,0.524-0.049,0.705C42.173,69.395,40.292,70.035,38.037,70.035z"></path><path fill="#1f212b" d="M52.125,70.637c-0.275,0.018-0.484,0.256-0.467,0.531c0.037,0.57-0.094,1.02-0.389,1.335 C50.849,72.951,50.241,73,50,73s-0.849-0.049-1.27-0.497c-0.295-0.315-0.426-0.765-0.389-1.335 c0.018-0.275-0.191-0.514-0.467-0.531c-0.25-0.029-0.513,0.19-0.531,0.467c-0.069,1.067,0.319,1.723,0.657,2.083 C48.485,73.703,49.214,74,50,74s1.515-0.297,1.999-0.813c0.338-0.36,0.727-1.016,0.657-2.083 C52.638,70.827,52.372,70.608,52.125,70.637z"></path><path fill="#1f212b" d="M63.045,73.04c-0.265,0-0.485-0.206-0.499-0.473c-0.015-0.276,0.196-0.512,0.472-0.526 c2.6-0.141,4.871-0.884,6.75-2.21c0.223-0.16,0.538-0.106,0.696,0.12c0.159,0.226,0.105,0.537-0.12,0.696 c-2.035,1.437-4.481,2.241-7.271,2.392C63.062,73.04,63.054,73.04,63.045,73.04z"></path><path fill="#1f212b" d="M71.722,69.314c-0.126,0-0.251-0.047-0.349-0.142c-0.198-0.192-0.202-0.509-0.01-0.707 C74.045,65.71,75,62.027,75,59.5c0-0.66-0.031-1.316-0.095-1.951c-0.026-0.274,0.174-0.52,0.449-0.547 c0.271-0.007,0.519,0.174,0.547,0.449C75.967,58.118,76,58.808,76,59.5c0,2.724-1.029,6.692-3.92,9.663 C71.982,69.264,71.852,69.314,71.722,69.314z"></path><path fill="#1f212b" d="M75.167,56.333c-0.236,0-0.446-0.168-0.49-0.409c-0.396-2.14-1.151-4.188-2.309-6.262 c-0.135-0.24-0.048-0.545,0.193-0.68c0.237-0.134,0.544-0.049,0.68,0.193c1.211,2.17,2.002,4.317,2.418,6.566 c0.051,0.271-0.129,0.532-0.4,0.582C75.229,56.33,75.197,56.333,75.167,56.333z"></path><path fill="#1f212b" d="M36.955,73.04c-0.009,0-0.018,0-0.026-0.001c-9.396-0.505-12.521-8.118-12.886-12.537 c-0.023-0.275,0.182-0.517,0.457-0.539c0.251-0.021,0.516,0.181,0.539,0.457c0.339,4.096,3.234,11.152,11.942,11.621 c0.276,0.015,0.487,0.25,0.473,0.525C37.44,72.833,37.22,73.04,36.955,73.04z"></path><path fill="#1f212b" d="M24.518,59.147c-0.006,0-0.013,0-0.02,0c-0.276-0.012-0.491-0.244-0.48-0.52 c0.023-0.586,0.072-1.175,0.146-1.751c0.034-0.273,0.291-0.47,0.56-0.433c0.273,0.035,0.468,0.285,0.433,0.56 c-0.069,0.547-0.116,1.106-0.138,1.663C25.007,58.937,24.785,59.147,24.518,59.147z"></path><path fill="#1f212b" d="M25.153,54.902c-0.042,0-0.085-0.005-0.128-0.017c-0.267-0.07-0.426-0.345-0.355-0.611 c0.453-1.712,1.156-3.427,2.089-5.099c0.135-0.242,0.439-0.328,0.68-0.193c0.241,0.135,0.328,0.438,0.193,0.68 c-0.904,1.622-1.557,3.215-1.995,4.868C25.577,54.755,25.375,54.902,25.153,54.902z"></path></g>
</svg>