<svg xmlns="http://www.w3.org/2000/svg" x="0px" y="0px" width="100" height="100" viewBox="0 0 100 100">
<ellipse cx="49.979" cy="55.5" fill="#f9e7e5" rx="29.521" ry="24.5"></ellipse><path fill="#f9e65c" d="M76,43.5l-0.19,0.13c-1.79-2.68-4.17-5.05-7-6.99l0.21-0.3c0.61-1.3,0.82-4.02-1.14-5.44 c-0.38-3.53,2-10.88,9.99-10.88c7.86,0,9.92,9.38,12.9,9.51c1.74,0.08,3.08-1.73,3.08-1.73C96.25,32.92,93.32,46.51,76,43.5z"></path><path fill="#f9e65c" d="M32.12,30.9c-1.96,1.42-1.75,4.14-1.14,5.44l0.2,0.28c-2.83,1.94-5.22,4.31-7.02,6.99L24,43.5 C6.68,46.51,3.75,32.92,6.15,27.8c0,0,1.34,1.81,3.08,1.73c2.98-0.13,5.04-9.51,12.9-9.51C30.12,20.02,32.5,27.37,32.12,30.9z"></path><path fill="#fff" d="M79.5,55.5c0,4.61-1.53,8.92-4.2,12.6c-0.7,0.34-3.18,1.4-6.8,1.4c-10,0-15-8.5-15-15 c0-6.319,4.043-13.731,8.97-15.075c8.961-2.444,13.21,4.025,13.21,4.025C78.12,47.01,79.5,51.12,79.5,55.5z"></path><path fill="#fff" d="M20.458,55.5c0,4.61,1.53,8.92,4.2,12.6c0.7,0.34,3.18,1.4,6.8,1.4c10,0,15-8.5,15-15 c0-6.319-4.043-13.731-8.97-15.075c-8.961-2.444-13.21,4.025-13.21,4.025C21.838,47.01,20.458,51.12,20.458,55.5z"></path><path fill="#a9dde2" d="M76,55.542c0,4.95-3.396,12.908-12.795,13.42l0,0C56.7,66.507,53.5,59.817,53.5,54.519 c0-9.287,6.452-15.636,11.25-16.101c3.021-0.293,6.479,3.267,8.182,6.058C75.038,48.291,76,51.807,76,55.542z"></path><path fill="#a9dde2" d="M24,55.542c0,4.95,3.396,12.908,12.795,13.42l0,0C43.3,66.507,46.5,59.817,46.5,54.519 c0-9.287-6.452-15.636-11.25-16.101c-3.021-0.293-6.479,3.267-8.182,6.058C24.962,48.291,24,51.807,24,55.542z"></path><path fill="#1f212b" d="M46.5,54.5c0,3-1.07,6.43-3.2,9.25l-0.01,0.01c-1.49,1.29-3.36,1.78-5.25,1.78 c-7.45,0-10.54-5.94-10.54-10.04c0-2.35,0.45-6.63,3.6-11.09V44.4c1.71-0.32,11.9-0.9,11.9-0.9v0.18C45.5,47,46.5,50.8,46.5,54.5z"></path><path fill="#1f212b" d="M72.5,55.5c0,4.1-3.09,10.04-10.54,10.04c-1.89,0-3.76-0.49-5.25-1.78l-0.01-0.01 c-2.13-2.82-3.2-6.25-3.2-9.25c0-3.7,1-7.5,3.5-10.82V43.5c0,0,10.16,0.58,11.9,0.91C72.05,48.87,72.5,53.15,72.5,55.5z"></path><path fill="#f9e65c" d="M77.13,45.87c-16.17,2.06-23.95-3.92-27.13-8.4c-3.18,4.48-10.96,10.46-27.13,8.4l-0.03-0.02 C27.36,37.11,37.81,31,49.98,31C62.16,31,72.62,37.12,77.13,45.87z"></path><path fill="#78a1d1" d="M69.02,36.34l-0.21,0.3c-2.14-1.48-4.53-2.7-7.11-3.63l0.03-0.09c0.86-2.49,3.65-3.45,5.76-2.27 c0.14,0.08,0.27,0.16,0.39,0.25C69.84,32.32,69.63,35.04,69.02,36.34z"></path><path fill="#78a1d1" d="M38.3,32.99c-2.59,0.93-4.98,2.16-7.12,3.63l-0.2-0.28c-0.61-1.3-0.82-4.02,1.14-5.44 c0.12-0.09,0.25-0.17,0.39-0.25c2.11-1.18,4.9-0.22,5.76,2.27L38.3,32.99z"></path><circle cx="59.5" cy="53.5" r="4" fill="#fff"></circle><circle cx="40.5" cy="53.5" r="4" fill="#fff"></circle><g><path fill="#1f212b" d="M49.979,81c-16.83,0-30.521-11.439-30.521-25.5S33.149,30,49.979,30 C66.809,30,80.5,41.439,80.5,55.5S66.809,81,49.979,81z M49.979,32c-15.727,0-28.521,10.542-28.521,23.5S34.253,79,49.979,79 S78.5,68.458,78.5,55.5S65.706,32,49.979,32z"></path><path fill="#1f212b" d="M69.019,37.337c-0.143,0-0.288-0.03-0.426-0.096c-0.499-0.235-0.713-0.832-0.478-1.331 c0.375-0.795,0.81-3.313-1.11-4.387c-0.769-0.432-1.687-0.496-2.52-0.179c-0.856,0.326-1.499,1-1.808,1.896 c-0.18,0.523-0.751,0.799-1.271,0.62c-0.522-0.18-0.8-0.749-0.62-1.271c0.498-1.446,1.586-2.581,2.985-3.115 c1.389-0.53,2.923-0.418,4.209,0.303c2.827,1.582,2.83,5.104,1.942,6.985C69.753,37.125,69.394,37.337,69.019,37.337z"></path><path fill="#1f212b" d="M80.721,44.935c-1.478,0-3.103-0.139-4.892-0.449c-0.544-0.095-0.909-0.612-0.814-1.156 s0.614-0.904,1.156-0.814c8.737,1.516,13.041-1.389,15.11-4.096c2.077-2.719,2.643-6.274,2.118-8.799 c-0.685,0.503-1.605,0.959-2.675,0.914c-1.605-0.07-2.708-1.588-4.105-3.51c-1.945-2.676-4.366-6.007-8.752-6.007 c-2.729,0-4.94,0.922-6.57,2.738c-1.952,2.178-2.623,5.173-2.42,7.035c0.06,0.549-0.337,1.043-0.886,1.103 c-0.553,0.059-1.043-0.336-1.103-0.886c-0.258-2.366,0.545-5.938,2.92-8.587c1.997-2.227,4.783-3.403,8.059-3.403 c5.404,0,8.274,3.948,10.37,6.831c0.95,1.308,1.934,2.659,2.575,2.688c0.929,0.038,1.951-0.946,2.241-1.332 c0.212-0.28,0.559-0.418,0.904-0.394c0.349,0.037,0.653,0.252,0.802,0.569c1.377,2.94,1.182,8.234-1.89,12.253 C90.908,42.2,87.277,44.935,80.721,44.935z"></path><path fill="#1f212b" d="M59.5,58c-2.481,0-4.5-2.019-4.5-4.5s2.019-4.5,4.5-4.5s4.5,2.019,4.5,4.5S61.981,58,59.5,58z M59.5,50c-1.93,0-3.5,1.57-3.5,3.5s1.57,3.5,3.5,3.5s3.5-1.57,3.5-3.5S61.43,50,59.5,50z"></path><path fill="#1f212b" d="M68.5,70C57.926,70,53,60.751,53,54.5c0-4.148,1.246-7.993,3.603-11.12 c0.168-0.222,0.481-0.263,0.7-0.099c0.221,0.166,0.265,0.479,0.099,0.7C55.176,46.934,54,50.571,54,54.5 C54,60.521,58.499,69,68.5,69c4.107,0,6.731-1.423,6.758-1.438c0.239-0.132,0.545-0.047,0.679,0.195 c0.134,0.241,0.048,0.545-0.193,0.679C75.628,68.501,72.883,70,68.5,70z"></path><path fill="#1f212b" d="M50,70c-0.276,0-0.5-0.224-0.5-0.5S49.724,69,50,69c0.241,0,0.849-0.049,1.27-0.497 c0.295-0.315,0.426-0.765,0.389-1.335c-0.018-0.275,0.191-0.514,0.467-0.531c0.244-0.024,0.513,0.19,0.531,0.467 c0.069,1.067-0.319,1.723-0.657,2.083C51.515,69.703,50.786,70,50,70z"></path><path fill="#1f212b" d="M70.905,46.788c-12.526,0-18.517-5.411-20.905-8.482c-2.759,3.545-10.314,10.209-27.196,8.065 c-0.273-0.035-0.468-0.285-0.433-0.56c0.035-0.273,0.285-0.468,0.56-0.433c17.258,2.194,24.395-5.004,26.661-8.2 c0.188-0.266,0.629-0.266,0.816,0c2.268,3.196,9.408,10.391,26.661,8.2c0.266-0.035,0.524,0.159,0.56,0.433 c0.035,0.274-0.159,0.524-0.433,0.56C74.936,46.658,72.842,46.788,70.905,46.788z"></path><path fill="#1f212b" d="M30.981,37.337c-0.375,0-0.734-0.212-0.905-0.573c-0.888-1.882-0.885-5.403,1.942-6.986 c1.285-0.719,2.819-0.831,4.209-0.302c1.399,0.534,2.487,1.669,2.985,3.115c0.18,0.521-0.098,1.091-0.62,1.271 c-0.519,0.179-1.091-0.097-1.271-0.62c-0.309-0.896-0.951-1.57-1.808-1.896c-0.833-0.317-1.75-0.253-2.52,0.178 c-1.92,1.075-1.485,3.593-1.11,4.388c0.235,0.499,0.021,1.096-0.478,1.331C31.27,37.307,31.124,37.337,30.981,37.337z"></path><path fill="#1f212b" d="M19.279,44.935c-6.558,0-10.188-2.733-12.149-5.302C4.059,35.614,3.863,30.32,5.24,27.38 c0.148-0.319,0.455-0.536,0.805-0.571c0.357-0.034,0.693,0.117,0.903,0.398c0.288,0.383,1.282,1.379,2.239,1.329 c0.642-0.028,1.625-1.38,2.575-2.688c2.096-2.883,4.966-6.831,10.37-6.831c3.275,0,6.062,1.177,8.059,3.403 c2.375,2.648,3.178,6.221,2.92,8.587c-0.06,0.549-0.558,0.943-1.103,0.886c-0.549-0.06-0.945-0.554-0.886-1.103 c0.203-1.862-0.468-4.857-2.42-7.035c-1.63-1.816-3.841-2.738-6.57-2.738c-4.386,0-6.807,3.331-8.752,6.007 c-1.397,1.922-2.5,3.439-4.105,3.51c-1.066,0.032-1.99-0.411-2.675-0.914c-0.524,2.524,0.041,6.08,2.118,8.799 c2.069,2.706,6.37,5.612,15.11,4.096c0.546-0.09,1.061,0.271,1.156,0.814c0.095,0.544-0.271,1.062-0.814,1.156 C22.383,44.796,20.757,44.935,19.279,44.935z"></path><path fill="#1f212b" d="M40.5,58c-2.481,0-4.5-2.019-4.5-4.5s2.019-4.5,4.5-4.5s4.5,2.019,4.5,4.5S42.981,58,40.5,58z M40.5,50c-1.93,0-3.5,1.57-3.5,3.5s1.57,3.5,3.5,3.5s3.5-1.57,3.5-3.5S42.43,50,40.5,50z"></path><path fill="#1f212b" d="M31.5,70c-4.383,0-7.128-1.499-7.243-1.563c-0.241-0.134-0.327-0.438-0.193-0.679 c0.133-0.242,0.439-0.327,0.679-0.195C24.769,67.577,27.393,69,31.5,69C41.501,69,46,60.521,46,54.5 c0-3.929-1.176-7.566-3.401-10.519c-0.166-0.221-0.122-0.534,0.099-0.7c0.219-0.164,0.532-0.123,0.7,0.099 C45.754,46.507,47,50.352,47,54.5C47,60.751,42.074,70,31.5,70z"></path><path fill="#1f212b" d="M52.125,66.637c-0.275,0.018-0.484,0.256-0.467,0.531c0.037,0.57-0.094,1.02-0.389,1.335 C50.849,68.951,50.241,69,50,69s-0.849-0.049-1.27-0.497c-0.295-0.315-0.426-0.765-0.389-1.335 c0.018-0.275-0.191-0.514-0.467-0.531c-0.253-0.025-0.513,0.19-0.531,0.467c-0.069,1.067,0.319,1.723,0.657,2.083 C48.485,69.703,49.214,70,50,70s1.515-0.297,1.999-0.813c0.338-0.36,0.727-1.016,0.657-2.083 C52.638,66.827,52.369,66.612,52.125,66.637z"></path><path fill="#1f212b" d="M61.963,66.035c-2.255,0-4.136-0.641-5.591-1.905c-0.208-0.181-0.23-0.496-0.049-0.705 c0.181-0.208,0.497-0.232,0.705-0.049c1.268,1.101,2.928,1.659,4.935,1.659C69.275,65.035,72,59.187,72,55.5 c0-3.098-0.815-6.199-2.357-8.972c-0.135-0.241-0.048-0.546,0.193-0.68c0.24-0.134,0.546-0.049,0.68,0.193 C72.141,48.963,73,52.233,73,55.5C73,59.573,70.004,66.035,61.963,66.035z"></path><path fill="#1f212b" d="M38.037,66.035C29.996,66.035,27,59.573,27,55.5c0-3.266,0.857-6.533,2.48-9.451 c0.134-0.242,0.439-0.327,0.68-0.193c0.241,0.134,0.328,0.438,0.193,0.68C28.814,49.305,28,52.404,28,55.5 c0,3.687,2.725,9.535,10.037,9.535c2.007,0,3.667-0.559,4.935-1.659c0.208-0.184,0.524-0.159,0.705,0.049 c0.182,0.209,0.159,0.524-0.049,0.705C42.173,65.395,40.292,66.035,38.037,66.035z"></path><path fill="#1f212b" d="M63.045,69.04c-0.265,0-0.485-0.206-0.499-0.473c-0.015-0.276,0.196-0.512,0.472-0.526 c2.6-0.141,4.871-0.884,6.75-2.21c0.224-0.16,0.538-0.107,0.696,0.12c0.159,0.226,0.105,0.537-0.12,0.696 c-2.035,1.437-4.481,2.241-7.271,2.392C63.062,69.04,63.054,69.04,63.045,69.04z"></path><path fill="#1f212b" d="M71.722,65.314c-0.126,0-0.251-0.047-0.349-0.142c-0.198-0.192-0.202-0.509-0.01-0.707 C74.045,61.71,75,58.027,75,55.5c0-0.66-0.031-1.316-0.095-1.951c-0.026-0.274,0.174-0.52,0.449-0.547 c0.271-0.017,0.519,0.174,0.547,0.449C75.967,54.118,76,54.808,76,55.5c0,2.724-1.029,6.692-3.92,9.663 C71.982,65.264,71.852,65.314,71.722,65.314z"></path><path fill="#1f212b" d="M75.167,52.333c-0.236,0-0.446-0.168-0.49-0.409c-0.346-1.867-0.963-3.656-1.886-5.469 c-0.126-0.246-0.027-0.547,0.219-0.672c0.242-0.124,0.547-0.028,0.672,0.219c0.968,1.899,1.614,3.777,1.978,5.74 c0.051,0.271-0.129,0.532-0.4,0.582C75.229,52.33,75.197,52.333,75.167,52.333z"></path><path fill="#1f212b" d="M36.955,69.04c-0.009,0-0.018,0-0.026-0.001c-9.396-0.505-12.521-8.118-12.886-12.537 c-0.023-0.275,0.182-0.517,0.457-0.539c0.246-0.021,0.517,0.181,0.539,0.457c0.339,4.096,3.234,11.152,11.942,11.621 c0.276,0.015,0.487,0.25,0.473,0.525C37.44,68.833,37.22,69.04,36.955,69.04z"></path><path fill="#1f212b" d="M24.518,55.147c-0.006,0-0.013,0-0.02,0c-0.276-0.012-0.491-0.244-0.48-0.52 c0.023-0.586,0.072-1.175,0.146-1.751c0.034-0.274,0.291-0.476,0.56-0.433c0.273,0.035,0.468,0.285,0.433,0.56 c-0.069,0.547-0.116,1.106-0.138,1.663C25.007,54.937,24.785,55.147,24.518,55.147z"></path><path fill="#1f212b" d="M25.153,50.902c-0.042,0-0.085-0.005-0.128-0.017c-0.267-0.07-0.426-0.345-0.355-0.611 c0.379-1.434,0.934-2.871,1.648-4.273c0.126-0.246,0.427-0.343,0.673-0.218c0.245,0.125,0.344,0.427,0.218,0.673 c-0.683,1.338-1.211,2.709-1.572,4.074C25.577,50.754,25.375,50.902,25.153,50.902z"></path></g>
</svg>