<svg xmlns="http://www.w3.org/2000/svg" x="0px" y="0px" width="100" height="100" viewBox="0 0 100 100">
<ellipse cx="49.979" cy="55.5" fill="#f9e7e5" rx="29.521" ry="24.5"></ellipse><path fill="#444445" d="M70.93,72.76v-0.01c5.3-4.42,8.57-10.52,8.57-17.25c0-3.97-1.14-7.73-3.17-11.05l11.15-2.95 C87.48,41.5,88.83,67.14,70.93,72.76z"></path><path fill="#444445" d="M29.03,72.75l-0.01,0.01C11.13,67.14,12.48,41.5,12.48,41.5l11.14,2.95l0.01,0.01 c-2.03,3.32-3.17,7.07-3.17,11.04C20.46,62.23,23.73,68.33,29.03,72.75z"></path><path fill="#444445" d="M75.68,43.45c0,0-7.55,4.1-23.18,3.05l-2.52-7.13l-2.52,7.13c-15.27,1.03-22.84-2.87-23.18-3.05 C29.35,36.02,38.96,31,49.98,31C61,31,70.61,36.02,75.68,43.45z"></path><path fill="#444445" d="M70.93,38.24v0.01c-2.16-1.82-4.67-3.35-7.43-4.53l1.97-5.9l1.76,2l2-6.67L70.93,38.24z"></path><path fill="#fff" d="M79.5,55.5c0,4.61-1.53,8.92-4.2,12.6c-0.7,0.34-3.18,1.4-6.8,1.4c-10,0-15-8.5-15-15 c0-0.73,0.04-1.47,0.12-2.2l-0.01-0.01l11.7-6.09l0.01-0.01c6.96-0.89,10.36-2.74,10.36-2.74C78.12,47.01,79.5,51.12,79.5,55.5z"></path><path fill="#fff" d="M20.46,55.5c0,4.61,1.53,8.92,4.2,12.6c0.7,0.34,3.18,1.4,6.8,1.4c10,0,15-8.5,15-15 c0-0.73-0.04-1.47-0.12-2.2l0.01-0.01l-11.7-6.09l-0.01-0.01c-6.96-0.89-10.36-2.74-10.36-2.74C21.84,47.01,20.46,51.12,20.46,55.5 z"></path><path fill="#8cc78c" d="M76,55.475c0,4.95-3.269,12.933-12.668,13.444l0,0C56.827,66.465,53.5,59.75,53.5,54.452 c0-0.747,0.041-1.503,0.123-2.25l-0.01-0.01l11.966-6.229l0.01-0.01c3.16-0.409,5.605-1.002,7.343-1.544 C75.039,48.224,76,51.997,76,55.475z"></path><path fill="#8cc78c" d="M23.973,55.475c0,4.95,3.269,12.933,12.668,13.444l0,0c6.505-2.455,9.832-9.169,9.832-14.467 c0-0.747-0.041-1.503-0.123-2.25l0.01-0.01l-11.966-6.229l-0.01-0.01c-3.16-0.409-5.605-1.002-7.343-1.544 C24.934,48.224,23.973,51.997,23.973,55.475z"></path><path fill="#1f212b" d="M72.5,55.5c0,4.1-3.09,10.04-10.54,10.04c-1.89,0-3.76-0.49-5.25-1.78l-0.01-0.01 c-2.13-2.82-3.2-6.25-3.2-9.25c0-0.73,0.04-1.47,0.12-2.2l-0.01-0.01l11.7-6.09l0.01-0.01c1.62-0.21,3.04-0.47,4.27-0.74 C72.12,49.53,72.5,53.33,72.5,55.5z"></path><path fill="#1f212b" d="M46.46,54.5c0,3-1.07,6.43-3.2,9.25l-0.01,0.01c-1.49,1.29-3.36,1.78-5.26,1.78 c-7.45,0-10.53-5.94-10.53-10.04c0-2.17,0.38-5.97,2.91-10.05c1.23,0.28,2.65,0.53,4.27,0.74l0.01,0.01l11.69,6.1 C46.42,53.03,46.46,53.77,46.46,54.5z"></path><path fill="#fff" d="M63.5,53c0,2.21-1.79,4-4,4s-4-1.79-4-4c0-0.61,0-1.18,0.32-1.85v-0.01l4.63-2.41l0.09,0.18 C62.68,49.76,63.5,51.42,63.5,53z"></path><path fill="#fff" d="M44.46,53c0,2.21-1.79,4-4,4c-2.21,0-4-1.79-4-4c0-1.58,0.82-3.24,2.96-4.09l0.09-0.18l4.63,2.42 C44.46,51.82,44.46,52.39,44.46,53z"></path><g><path fill="#1f212b" d="M49.979,81c-16.83,0-30.521-11.439-30.521-25.5S33.149,30,49.979,30 C66.809,30,80.5,41.439,80.5,55.5S66.809,81,49.979,81z M49.979,32c-15.727,0-28.521,10.542-28.521,23.5S34.253,79,49.979,79 S78.5,68.458,78.5,55.5S65.706,32,49.979,32z"></path><path fill="#1f212b" d="M59.5,57.5c-2.481,0-4.5-2.019-4.5-4.5c0-0.635,0-1.291,0.362-2.066 c0.117-0.251,0.416-0.357,0.665-0.241c0.25,0.117,0.358,0.415,0.241,0.665C56,51.932,56,52.403,56,53c0,1.93,1.57,3.5,3.5,3.5 S63,54.93,63,53c0-1.636-0.965-2.956-2.648-3.623c-0.256-0.102-0.382-0.393-0.28-0.649s0.392-0.383,0.649-0.28 C62.805,49.273,64,50.933,64,53C64,55.481,61.981,57.5,59.5,57.5z"></path><path fill="#1f212b" d="M68.5,70C57.926,70,53,60.751,53,54.5c0-0.761,0.042-1.521,0.124-2.26 c0.03-0.273,0.269-0.471,0.553-0.441c0.274,0.031,0.472,0.278,0.441,0.553C54.04,53.054,54,53.776,54,54.5 C54,60.521,58.499,69,68.5,69c4.107,0,6.731-1.423,6.758-1.438c0.24-0.132,0.545-0.047,0.679,0.195 c0.134,0.241,0.048,0.545-0.193,0.679C75.628,68.501,72.883,70,68.5,70z"></path><path fill="#1f212b" d="M57.563,47.175c-1.592,0-3.29-0.055-5.097-0.176c-0.199-0.014-0.372-0.145-0.438-0.332l-2.521-7.133 c-0.092-0.261,0.045-0.547,0.305-0.639c0.26-0.093,0.545,0.044,0.639,0.305l2.41,6.822c15.044,0.95,22.51-2.978,22.585-3.017 c0.242-0.133,0.546-0.042,0.678,0.201s0.042,0.546-0.201,0.678C75.646,44.035,69.712,47.175,57.563,47.175z"></path><path fill="#1f212b" d="M53.275,52.882c-0.291,0-0.575-0.097-0.813-0.282c-0.333-0.26-0.518-0.651-0.507-1.074 c0.009-0.349,0.048-0.724,0.116-1.112c0.049-0.271,0.313-0.459,0.579-0.405c0.271,0.048,0.453,0.307,0.405,0.579 c-0.06,0.34-0.094,0.663-0.101,0.963c-0.004,0.142,0.075,0.225,0.122,0.262c0.072,0.057,0.162,0.075,0.251,0.065l11.761-6.128 c0.244-0.126,0.547-0.033,0.675,0.212s0.032,0.547-0.212,0.675l-11.817,6.157c-0.031,0.016-0.063,0.029-0.097,0.038 C53.518,52.865,53.396,52.882,53.275,52.882z"></path><path fill="#1f212b" d="M70.933,39.243c-0.502,0-0.936-0.377-0.993-0.888l-1.155-10.242l-0.598,1.993 c-0.104,0.349-0.39,0.612-0.745,0.69c-0.359,0.073-0.725-0.046-0.965-0.318l-0.607-0.692l-1.421,4.248 c-0.175,0.523-0.741,0.808-1.266,0.631c-0.523-0.175-0.806-0.741-0.631-1.266l1.973-5.899c0.113-0.339,0.399-0.593,0.751-0.663 c0.35-0.067,0.713,0.053,0.949,0.321l0.565,0.645l1.482-4.942c0.137-0.455,0.583-0.746,1.048-0.709 c0.473,0.043,0.851,0.412,0.904,0.884l1.703,15.096c0.062,0.549-0.333,1.044-0.882,1.106C71.008,39.241,70.97,39.243,70.933,39.243 z"></path><path fill="#1f212b" d="M61.963,66.035c-2.255,0-4.136-0.641-5.591-1.905c-0.208-0.181-0.23-0.496-0.049-0.705 c0.181-0.208,0.497-0.232,0.705-0.049c1.268,1.101,2.928,1.659,4.935,1.659C69.275,65.035,72,59.187,72,55.5 c0-2.38-0.492-6.009-2.837-9.786c-0.146-0.234-0.073-0.543,0.161-0.688c0.233-0.144,0.543-0.073,0.688,0.161 C72.481,49.164,73,52.99,73,55.5C73,59.573,70.004,66.035,61.963,66.035z"></path><path fill="#1f212b" d="M40.458,57.5c-2.481,0-4.5-2.019-4.5-4.5c0-2.067,1.195-3.727,3.279-4.553 c0.257-0.103,0.547,0.023,0.649,0.28c0.102,0.257-0.024,0.548-0.28,0.649c-1.684,0.667-2.648,1.987-2.648,3.623 c0,1.93,1.57,3.5,3.5,3.5s3.5-1.57,3.5-3.5c0-0.597,0-1.068-0.269-1.643c-0.117-0.25-0.009-0.548,0.241-0.665 c0.249-0.116,0.548-0.01,0.665,0.241c0.362,0.775,0.362,1.432,0.362,2.066C44.958,55.481,42.939,57.5,40.458,57.5z"></path><path fill="#1f212b" d="M31.458,70c-4.383,0-7.128-1.499-7.243-1.563c-0.241-0.134-0.327-0.438-0.193-0.679 c0.133-0.242,0.438-0.327,0.679-0.195C24.727,67.577,27.351,69,31.458,69c10.001,0,14.5-8.479,14.5-14.5 c0-0.724-0.04-1.446-0.118-2.148c-0.03-0.274,0.167-0.521,0.441-0.553c0.281-0.028,0.522,0.167,0.553,0.441 c0.082,0.739,0.124,1.499,0.124,2.26C46.958,60.751,42.032,70,31.458,70z"></path><path fill="#1f212b" d="M52.125,66.637c-0.275,0.018-0.484,0.256-0.467,0.531c0.037,0.57-0.094,1.02-0.389,1.335 C50.849,68.951,50.241,69,50,69c-0.007,0-0.014,0.004-0.021,0.004c-0.007,0-0.014-0.004-0.021-0.004 c-0.241,0-0.849-0.049-1.27-0.497c-0.295-0.315-0.426-0.765-0.389-1.335c0.018-0.275-0.191-0.514-0.467-0.531 c-0.243-0.025-0.513,0.19-0.531,0.467c-0.069,1.067,0.319,1.723,0.657,2.083C48.443,69.703,49.172,70,49.958,70 c0.007,0,0.014-0.004,0.021-0.004C49.986,69.996,49.993,70,50,70c0.786,0,1.515-0.297,1.999-0.813 c0.338-0.36,0.727-1.016,0.657-2.083C52.638,66.827,52.382,66.612,52.125,66.637z"></path><path fill="#1f212b" d="M42.395,47.175c-12.149,0-18.082-3.14-18.359-3.29c-0.243-0.132-0.333-0.435-0.201-0.678 s0.435-0.334,0.678-0.201c0.074,0.039,7.541,3.965,22.585,3.017l2.411-6.822c0.094-0.26,0.379-0.395,0.639-0.305 c0.26,0.093,0.396,0.378,0.305,0.639l-2.521,7.133c-0.066,0.188-0.239,0.318-0.438,0.332C45.685,47.12,43.986,47.175,42.395,47.175 z"></path><path fill="#1f212b" d="M46.683,52.882c-0.12,0-0.242-0.017-0.363-0.051c-0.033-0.009-0.065-0.022-0.097-0.038 l-11.817-6.157c-0.244-0.128-0.34-0.43-0.212-0.675s0.432-0.337,0.675-0.212l11.761,6.128c0.088,0.011,0.179-0.009,0.251-0.065 c0.047-0.037,0.126-0.12,0.122-0.261c-0.007-0.301-0.041-0.624-0.101-0.964c-0.048-0.272,0.134-0.531,0.405-0.579 c0.267-0.055,0.531,0.134,0.579,0.405c0.068,0.389,0.107,0.764,0.116,1.113c0.011,0.422-0.174,0.813-0.507,1.073 C47.258,52.785,46.974,52.882,46.683,52.882z"></path><path fill="#1f212b" d="M37.995,66.035c-8.041,0-11.037-6.462-11.037-10.535c0-2.51,0.519-6.336,2.987-10.313 c0.146-0.234,0.457-0.305,0.688-0.161c0.234,0.146,0.307,0.454,0.161,0.688c-2.345,3.777-2.837,7.406-2.837,9.786 c0,3.687,2.725,9.535,10.037,9.535c2.007,0,3.667-0.559,4.935-1.659c0.208-0.184,0.524-0.159,0.705,0.049 c0.182,0.209,0.159,0.524-0.049,0.705C42.131,65.395,40.25,66.035,37.995,66.035z"></path><path fill="#1f212b" d="M70.934,73.756c-0.426,0-0.82-0.273-0.954-0.7c-0.165-0.527,0.128-1.089,0.654-1.254 c14.735-4.628,15.836-23.904,15.864-29.007l-9.908,2.623c-0.533,0.14-1.08-0.177-1.223-0.711c-0.142-0.534,0.177-1.081,0.711-1.223 l11.146-2.95c0.287-0.078,0.601-0.02,0.845,0.158c0.243,0.178,0.394,0.455,0.41,0.756c0.014,0.265,1.177,26.477-17.245,32.262 C71.134,73.741,71.032,73.756,70.934,73.756z"></path><path fill="#1f212b" d="M29.024,73.756c-0.099,0-0.2-0.015-0.3-0.046c-18.422-5.785-17.259-31.997-17.245-32.262 c0.017-0.301,0.167-0.578,0.41-0.756c0.244-0.178,0.556-0.235,0.845-0.158l11.146,2.95c0.534,0.142,0.853,0.688,0.711,1.223 s-0.689,0.852-1.223,0.711l-9.908-2.623c0.028,5.103,1.129,24.379,15.864,29.007c0.526,0.165,0.819,0.727,0.654,1.254 C29.845,73.482,29.45,73.756,29.024,73.756z"></path><path fill="#1f212b" d="M63.045,69.04c-0.265,0-0.485-0.206-0.499-0.473c-0.015-0.276,0.196-0.512,0.472-0.526 c2.6-0.141,4.871-0.884,6.75-2.21c0.223-0.16,0.537-0.107,0.696,0.12c0.159,0.226,0.105,0.537-0.12,0.696 c-2.035,1.437-4.481,2.241-7.271,2.392C63.062,69.04,63.054,69.04,63.045,69.04z"></path><path fill="#1f212b" d="M71.722,65.314c-0.126,0-0.251-0.047-0.349-0.142c-0.198-0.192-0.202-0.509-0.01-0.707 C74.045,61.71,75,58.027,75,55.5c0-0.66-0.031-1.316-0.095-1.951c-0.026-0.274,0.174-0.52,0.449-0.547 c0.27-0.017,0.519,0.174,0.547,0.449C75.967,54.118,76,54.808,76,55.5c0,2.724-1.029,6.692-3.92,9.663 C71.982,65.264,71.852,65.314,71.722,65.314z"></path><path fill="#1f212b" d="M75.167,52.333c-0.236,0-0.446-0.168-0.49-0.409c-0.395-2.128-1.434-4.945-2.585-7.01 c-0.135-0.24-0.048-0.545,0.193-0.68c0.236-0.133,0.544-0.049,0.68,0.193c1.2,2.149,2.283,5.089,2.694,7.314 c0.051,0.271-0.129,0.532-0.4,0.582C75.229,52.33,75.197,52.333,75.167,52.333z"></path><path fill="#1f212b" d="M36.955,69.04c-0.009,0-0.018,0-0.026-0.001c-9.396-0.505-12.521-8.118-12.886-12.537 c-0.023-0.275,0.182-0.517,0.457-0.539c0.248-0.021,0.517,0.181,0.539,0.457c0.339,4.096,3.234,11.152,11.942,11.621 c0.276,0.015,0.487,0.25,0.473,0.525C37.44,68.833,37.22,69.04,36.955,69.04z"></path><path fill="#1f212b" d="M24.518,55.147c-0.006,0-0.013,0-0.02,0c-0.276-0.012-0.491-0.244-0.48-0.52 c0.023-0.586,0.072-1.175,0.146-1.751c0.035-0.274,0.29-0.476,0.56-0.433c0.273,0.035,0.468,0.285,0.433,0.56 c-0.069,0.547-0.116,1.106-0.138,1.663C25.007,54.937,24.785,55.147,24.518,55.147z"></path><path fill="#1f212b" d="M25.153,50.902c-0.042,0-0.085-0.005-0.128-0.017c-0.267-0.07-0.426-0.345-0.355-0.611 c0.51-1.923,1.355-3.899,2.445-5.715c0.143-0.235,0.451-0.31,0.687-0.171c0.236,0.143,0.313,0.449,0.171,0.687 c-1.043,1.735-1.851,3.622-2.336,5.455C25.577,50.755,25.375,50.902,25.153,50.902z"></path></g>
</svg>